<svg width="20" height="20" viewBox="0 0 20 20" fill="none" xmlns="http://www.w3.org/2000/svg">
<path fill-rule="evenodd" clip-rule="evenodd" d="M7.19721 0.105548C7.69119 0.352537 7.89142 0.95321 7.64443 1.44719L6.11803 4.49997H13.882L12.3556 1.44719C12.1086 0.95321 12.3088 0.352537 12.8028 0.105548C13.2968 -0.141442 13.8974 0.0587828 14.1444 0.552761L16.118 4.49997H18C19.1046 4.49997 20 5.3954 20 6.49997V8.99998C20 9.87845 19.4336 10.6246 18.6461 10.8933L17.7268 18.248C17.6017 19.2489 16.7509 20 15.7422 20H4.25778C3.24914 20 2.39833 19.2489 2.27323 18.248L1.35388 10.8933C0.566373 10.6246 0 9.87845 0 8.99998V6.49997C0 5.39541 0.89543 4.49997 2 4.49997H3.88197L5.85557 0.552761C6.10256 0.0587828 6.70324 -0.141442 7.19721 0.105548ZM3.38278 11L4.25778 18H15.7422L16.6172 11H3.38278ZM2 6.49997V8.99998H18V6.49997H2Z" fill="#333131"/>
</svg>
