<svg width="115" height="17" viewBox="0 0 115 17" fill="none" xmlns="http://www.w3.org/2000/svg">
<path d="M6.18401 17L0.18401 0.079999H4.04801L8.34401 13.136H7.31201L11.992 0.079999H14.728L19.024 13.136H18.064L22.624 0.079999H26.248L20.2 17H17.152L13 4.976H13.552L9.25601 17H6.18401ZM24.9634 17L32.7394 0.079999H35.8354L43.7074 17H39.9154L37.8754 12.296L39.3394 13.328H29.2834L30.7714 12.296L28.7314 17H24.9634ZM34.2754 4.016L31.1794 11.36L30.5314 10.448H38.0914L37.5394 11.36L34.3714 4.016H34.2754ZM45.1664 17V0.079999H53.0624C54.9664 0.079999 56.4064 0.543999 57.3824 1.472C58.3744 2.384 58.8704 3.64 58.8704 5.24C58.8704 6.824 58.3744 8.088 57.3824 9.032C56.4064 9.96 54.9664 10.424 53.0624 10.424H48.9104V17H45.1664ZM48.9104 7.52H52.5824C53.4784 7.52 54.1424 7.32 54.5744 6.92C55.0224 6.52 55.2464 5.96 55.2464 5.24C55.2464 4.52 55.0224 3.968 54.5744 3.584C54.1424 3.184 53.4784 2.984 52.5824 2.984H48.9104V7.52ZM61.3617 17V0.079999H65.1057V17H61.3617ZM67.9096 17V14.24L76.9336 2.048V3.152H67.9096V0.079999H80.5096V2.816L71.4616 15.008V13.928H80.8456V17H67.9096ZM82.6752 17V14.24L91.6992 2.048V3.152H82.6752V0.079999H95.2752V2.816L86.2272 15.008V13.928H95.6112V17H82.6752ZM95.8384 17L103.614 0.079999H106.71L114.582 17H110.79L108.75 12.296L110.214 13.328H100.158L101.646 12.296L99.6064 17H95.8384ZM105.15 4.016L102.054 11.36L101.406 10.448H108.966L108.414 11.36L105.246 4.016H105.15Z" fill="#020101"/>
</svg>
