<svg width="18" height="18" viewBox="0 0 18 18" fill="none" xmlns="http://www.w3.org/2000/svg">
<path fill-rule="evenodd" clip-rule="evenodd" d="M5.60063 8.66668C4.61612 7.75351 4 6.44871 4 5C4 2.23858 6.23858 0 9 0C11.7614 0 14 2.23858 14 5C14 6.44871 13.3839 7.75351 12.3994 8.66668C12.4143 8.67277 12.4292 8.6789 12.4442 8.68508C13.5361 9.13738 14.5282 9.80031 15.364 10.636C16.1997 11.4718 16.8626 12.4639 17.3149 13.5558C17.7672 14.6478 18 15.8181 18 17V18H0V17C0 15.8181 0.232792 14.6478 0.685084 13.5558C1.13738 12.4639 1.80031 11.4718 2.63604 10.636C3.47177 9.80031 4.46392 9.13738 5.55585 8.68508C5.57076 8.67891 5.58569 8.67277 5.60063 8.66668ZM8.99791 8L9 8C10.6569 8 12 6.65685 12 5C12 3.34315 10.6569 2 9 2C7.34315 2 6 3.34315 6 5C6 6.65616 7.34202 7.99887 8.99791 8ZM9 10C8.08075 10 7.17049 10.1811 6.32122 10.5328C5.47194 10.8846 4.70026 11.4002 4.05025 12.0503C3.40024 12.7003 2.88463 13.4719 2.53284 14.3212C2.3094 14.8607 2.15484 15.4247 2.0718 16L15.9282 16C15.8452 15.4247 15.6906 14.8607 15.4672 14.3212C15.1154 13.4719 14.5998 12.7003 13.9497 12.0503C13.2997 11.4002 12.5281 10.8846 11.6788 10.5328C10.8295 10.1811 9.91925 10 9 10Z" fill="#333131"/>
</svg>
